<?xml version="1.0" standalone="no"?><!DOCTYPE svg PUBLIC "-//W3C//DTD SVG 1.1//EN" "http://www.w3.org/Graphics/SVG/1.1/DTD/svg11.dtd"><svg t="1641133922799" class="icon" viewBox="0 0 1024 1024" version="1.1" xmlns="http://www.w3.org/2000/svg" p-id="2087" xmlns:xlink="http://www.w3.org/1999/xlink" width="200" height="200"><defs><style type="text/css"></style></defs><path d="M727.108297 0.751339c43.352264-6.16098 78.514931 26.897938 78.439797 73.781495l-1.652946 735.260401c0 46.883557-35.38807 90.160687-78.740333 95.945998L150.756107 986.433047 152.709588 81.445154z" fill="#3F59F5" p-id="2088"></path><path d="M790.671581 71.001541l-1.878348 872.980849-569.515005 80.01761 1.878348-872.98085 569.515005-80.017609z" fill="#DF0000" p-id="2089"></path><path d="M221.156576 151.01915L152.634454 113.752733 722.224593 33.735124l68.446988 37.266417L221.156576 151.01915z" fill="#FFFFFF" p-id="2090"></path><path d="M794.803946 38.017756c43.352264-6.16098 78.514931 26.897938 78.439797 73.781496l-1.652946 735.2604c0 46.883557-35.38807 90.160687-78.815467 95.945998L218.376622 1023.699464 220.405237 118.711571z" fill="#3FA9F5" p-id="2091"></path><path d="M212.666445 114.65434l-4.958838-3.005356 520.903368-74.457701 5.409641 3.005357-521.354171 74.4577z" fill="#E6E6E6" p-id="2092"></path><path d="M218.376622 1024l-67.620515-38.393426 1.878347-904.311688 67.770783 37.416685L218.376622 1024z" fill="#3F59F5" p-id="2093"></path><path d="M799.612516 39.896104l-0.450804 233.666446-49.362976-26.296867-49.513244 40.19664 0.450804-233.666447 98.87622-13.899772z" fill="#F79B8B" p-id="2094"></path><path d="M433.560127 465.078876l-0.300535 136.893976-35.463204 5.033972 0.075134-51.842395-45.681414 6.386382-0.075134 51.842395-35.914007 5.033971 0.300535-136.893976 35.838873-5.033971-0.075134 51.992662 45.681415-6.386382 0.075134-52.067796 35.538337-4.958838zM558.207277 447.347274v32.457847l-63.638418 8.940935-0.075134 19.534816 60.03199-8.414998-0.075133 31.481107-59.956857 8.490131-0.075134 20.736958 66.117837-9.316604v32.683249l-101.505907 14.200308 0.225402-136.893976 98.951354-13.899773zM616.886857 439.082545l-0.150268 104.060459 60.708196-8.490131-0.075134 32.833516-96.547069 13.599237 0.225402-136.96911 35.838873-5.033971zM755.05811 419.697997c34.336195-4.80857 50.865654 16.078656 50.79052 42.751192s-17.13053 52.067797-51.015922 57.176902l-25.545528 3.681562v36.890747l-35.914007 5.109106V428.338396z m0 67.620515a17.957003 17.957003 0 0 0 15.026781-18.933744c0-9.016069-5.259373-16.454325-15.026781-15.026781l-25.77093 3.230758v34.035659l25.77093-3.681562" fill="#FFFFFF" p-id="2095"></path></svg>